<?xml version="1.0" encoding="UTF-8"?>
<!DOCTYPE svg PUBLIC "-//W3C//DTD SVG 1.1//EN" "http://www.w3.org/Graphics/SVG/1.1/DTD/svg11.dtd">
<svg xmlns="http://www.w3.org/2000/svg" version="1.1" width="1920px" height="1080px" style="shape-rendering:geometricPrecision; text-rendering:geometricPrecision; image-rendering:optimizeQuality; fill-rule:evenodd; clip-rule:evenodd" xmlns:xlink="http://www.w3.org/1999/xlink">
<g><path style="opacity:0.973" fill="#000000" d="M 99.5,148.5 C 111.5,148.5 123.5,148.5 135.5,148.5C 135.5,220.833 135.5,293.167 135.5,365.5C 170.833,365.5 206.167,365.5 241.5,365.5C 241.5,293.167 241.5,220.833 241.5,148.5C 261.5,148.5 281.5,148.5 301.5,148.5C 301.5,159.5 301.5,170.5 301.5,181.5C 293.5,181.5 285.5,181.5 277.5,181.5C 277.5,253.833 277.5,326.167 277.5,398.5C 218.167,398.5 158.833,398.5 99.5,398.5C 99.5,315.167 99.5,231.833 99.5,148.5 Z"/></g>
<g><path style="opacity:0.971" fill="#000000" d="M 1012.5,148.5 C 1024.5,148.5 1036.5,148.5 1048.5,148.5C 1048.5,231.833 1048.5,315.167 1048.5,398.5C 1036.5,398.5 1024.5,398.5 1012.5,398.5C 1012.5,315.167 1012.5,231.833 1012.5,148.5 Z"/></g>
<g><path style="opacity:0.973" fill="#000000" d="M 1083.5,148.5 C 1095.5,148.5 1107.5,148.5 1119.5,148.5C 1119.5,220.833 1119.5,293.167 1119.5,365.5C 1166.17,365.5 1212.83,365.5 1259.5,365.5C 1259.5,376.5 1259.5,387.5 1259.5,398.5C 1200.83,398.5 1142.17,398.5 1083.5,398.5C 1083.5,315.167 1083.5,231.833 1083.5,148.5 Z"/></g>
<g><path style="opacity:0.973" fill="#000000" d="M 1568.5,148.5 C 1580.17,148.5 1591.83,148.5 1603.5,148.5C 1603.5,194.5 1603.5,240.5 1603.5,286.5C 1638.83,286.5 1674.17,286.5 1709.5,286.5C 1709.5,266.5 1709.5,246.5 1709.5,226.5C 1720.83,226.5 1732.17,226.5 1743.5,226.5C 1743.5,257.5 1743.5,288.5 1743.5,319.5C 1723.5,319.5 1703.5,319.5 1683.5,319.5C 1683.5,335.167 1683.5,350.833 1683.5,366.5C 1703.5,366.5 1723.5,366.5 1743.5,366.5C 1743.5,377.167 1743.5,387.833 1743.5,398.5C 1712.17,398.5 1680.83,398.5 1649.5,398.5C 1649.5,372.167 1649.5,345.833 1649.5,319.5C 1634.17,319.5 1618.83,319.5 1603.5,319.5C 1603.5,345.833 1603.5,372.167 1603.5,398.5C 1591.83,398.5 1580.17,398.5 1568.5,398.5C 1568.5,315.167 1568.5,231.833 1568.5,148.5 Z"/></g>
<g><path style="opacity:0.97" fill="#000000" d="M 1780.5,148.5 C 1792.5,148.5 1804.5,148.5 1816.5,148.5C 1816.5,212.833 1816.5,277.167 1816.5,341.5C 1804.5,341.5 1792.5,341.5 1780.5,341.5C 1780.5,277.167 1780.5,212.833 1780.5,148.5 Z"/></g>
<g><path style="opacity:0.921" fill="#000000" d="M 323.5,160.5 C 335.833,160.5 348.167,160.5 360.5,160.5C 360.5,171.833 360.5,183.167 360.5,194.5C 348.167,194.5 335.833,194.5 323.5,194.5C 323.5,183.167 323.5,171.833 323.5,160.5 Z"/></g>
<g><path style="opacity:0.946" fill="#000000" d="M 1291.5,160.5 C 1303.5,160.5 1315.5,160.5 1327.5,160.5C 1327.5,171.833 1327.5,183.167 1327.5,194.5C 1315.5,194.5 1303.5,194.5 1291.5,194.5C 1291.5,183.167 1291.5,171.833 1291.5,160.5 Z"/></g>
<g><path style="opacity:0.943" fill="#000000" d="M 323.5,226.5 C 335.833,226.5 348.167,226.5 360.5,226.5C 360.5,283.833 360.5,341.167 360.5,398.5C 348.167,398.5 335.833,398.5 323.5,398.5C 323.5,341.167 323.5,283.833 323.5,226.5 Z"/></g>
<g><path style="opacity:0.962" fill="#000000" d="M 393.5,226.5 C 450.5,226.5 507.5,226.5 564.5,226.5C 564.5,237.5 564.5,248.5 564.5,259.5C 519.167,259.5 473.833,259.5 428.5,259.5C 428.5,271.5 428.5,283.5 428.5,295.5C 473.833,295.5 519.167,295.5 564.5,295.5C 564.5,329.833 564.5,364.167 564.5,398.5C 507.5,398.5 450.5,398.5 393.5,398.5C 393.5,387.833 393.5,377.167 393.5,366.5C 438.833,366.5 484.167,366.5 529.5,366.5C 529.5,353.833 529.5,341.167 529.5,328.5C 484.167,328.5 438.833,328.5 393.5,328.5C 393.5,294.5 393.5,260.5 393.5,226.5 Z"/></g>
<g><path style="opacity:0.972" fill="#000000" d="M 596.5,226.5 C 608.5,226.5 620.5,226.5 632.5,226.5C 632.5,273.167 632.5,319.833 632.5,366.5C 667.167,366.5 701.833,366.5 736.5,366.5C 736.5,319.833 736.5,273.167 736.5,226.5C 748.167,226.5 759.833,226.5 771.5,226.5C 771.5,283.833 771.5,341.167 771.5,398.5C 713.167,398.5 654.833,398.5 596.5,398.5C 596.5,341.167 596.5,283.833 596.5,226.5 Z"/></g>
<g><path style="opacity:0.966" fill="#000000" d="M 804.5,226.5 C 862.833,226.5 921.167,226.5 979.5,226.5C 979.5,283.833 979.5,341.167 979.5,398.5C 921.167,398.5 862.833,398.5 804.5,398.5C 804.5,364.167 804.5,329.833 804.5,295.5C 851.167,295.5 897.833,295.5 944.5,295.5C 944.5,283.5 944.5,271.5 944.5,259.5C 897.833,259.5 851.167,259.5 804.5,259.5C 804.5,248.5 804.5,237.5 804.5,226.5 Z M 839.5,328.5 C 874.5,328.5 909.5,328.5 944.5,328.5C 944.5,341.167 944.5,353.833 944.5,366.5C 909.5,366.5 874.5,366.5 839.5,366.5C 839.5,353.833 839.5,341.167 839.5,328.5 Z"/></g>
<g><path style="opacity:0.969" fill="#000000" d="M 1291.5,226.5 C 1303.5,226.5 1315.5,226.5 1327.5,226.5C 1327.5,283.833 1327.5,341.167 1327.5,398.5C 1315.5,398.5 1303.5,398.5 1291.5,398.5C 1291.5,341.167 1291.5,283.833 1291.5,226.5 Z"/></g>
<g><path style="opacity:0.966" fill="#000000" d="M 1361.5,226.5 C 1419.83,226.5 1478.17,226.5 1536.5,226.5C 1536.5,283.833 1536.5,341.167 1536.5,398.5C 1524.5,398.5 1512.5,398.5 1500.5,398.5C 1500.5,352.167 1500.5,305.833 1500.5,259.5C 1465.83,259.5 1431.17,259.5 1396.5,259.5C 1396.5,305.833 1396.5,352.167 1396.5,398.5C 1384.83,398.5 1373.17,398.5 1361.5,398.5C 1361.5,341.167 1361.5,283.833 1361.5,226.5 Z"/></g>
<g><path style="opacity:0.946" fill="#000000" d="M 1780.5,364.5 C 1792.5,364.5 1804.5,364.5 1816.5,364.5C 1816.5,375.833 1816.5,387.167 1816.5,398.5C 1804.5,398.5 1792.5,398.5 1780.5,398.5C 1780.5,387.167 1780.5,375.833 1780.5,364.5 Z"/></g>
<g><path style="opacity:0.97" fill="#000000" d="M 758.5,519.5 C 798.833,519.5 839.167,519.5 879.5,519.5C 879.5,574.833 879.5,630.167 879.5,685.5C 871.5,685.5 863.5,685.5 855.5,685.5C 855.5,666.167 855.5,646.833 855.5,627.5C 830.833,627.5 806.167,627.5 781.5,627.5C 781.5,646.833 781.5,666.167 781.5,685.5C 773.833,685.5 766.167,685.5 758.5,685.5C 758.5,630.167 758.5,574.833 758.5,519.5 Z M 781.5,541.5 C 806.167,541.5 830.833,541.5 855.5,541.5C 855.5,562.833 855.5,584.167 855.5,605.5C 830.833,605.5 806.167,605.5 781.5,605.5C 781.5,584.167 781.5,562.833 781.5,541.5 Z"/></g>
<g><path style="opacity:0.958" fill="#000000" d="M 902.5,519.5 C 941.833,519.5 981.167,519.5 1020.5,519.5C 1020.5,526.833 1020.5,534.167 1020.5,541.5C 989.167,541.5 957.833,541.5 926.5,541.5C 926.5,557.5 926.5,573.5 926.5,589.5C 957.833,589.5 989.167,589.5 1020.5,589.5C 1020.5,597.167 1020.5,604.833 1020.5,612.5C 989.167,612.5 957.833,612.5 926.5,612.5C 926.5,629.5 926.5,646.5 926.5,663.5C 957.833,663.5 989.167,663.5 1020.5,663.5C 1020.5,670.833 1020.5,678.167 1020.5,685.5C 981.167,685.5 941.833,685.5 902.5,685.5C 902.5,630.167 902.5,574.833 902.5,519.5 Z"/></g>
<g><path style="opacity:0.97" fill="#000000" d="M 1041.5,519.5 C 1081.17,519.5 1120.83,519.5 1160.5,519.5C 1160.5,526.833 1160.5,534.167 1160.5,541.5C 1128.83,541.5 1097.17,541.5 1065.5,541.5C 1065.5,582.167 1065.5,622.833 1065.5,663.5C 1089.17,663.5 1112.83,663.5 1136.5,663.5C 1136.5,646.5 1136.5,629.5 1136.5,612.5C 1124.5,612.5 1112.5,612.5 1100.5,612.5C 1100.5,604.833 1100.5,597.167 1100.5,589.5C 1120.5,589.5 1140.5,589.5 1160.5,589.5C 1160.5,621.5 1160.5,653.5 1160.5,685.5C 1120.83,685.5 1081.17,685.5 1041.5,685.5C 1041.5,630.167 1041.5,574.833 1041.5,519.5 Z"/></g>
</svg>
