<?xml version="1.0" encoding="UTF-8"?>
<!DOCTYPE svg PUBLIC "-//W3C//DTD SVG 1.1//EN" "http://www.w3.org/Graphics/SVG/1.1/DTD/svg11.dtd">
<svg xmlns="http://www.w3.org/2000/svg" version="1.1" width="1920px" height="1080px" style="shape-rendering:geometricPrecision; text-rendering:geometricPrecision; image-rendering:optimizeQuality; fill-rule:evenodd; clip-rule:evenodd" xmlns:xlink="http://www.w3.org/1999/xlink">
<g><path style="opacity:0.961" fill="#000000" d="M 529.5,303.5 C 535.5,303.5 541.5,303.5 547.5,303.5C 547.5,339.833 547.5,376.167 547.5,412.5C 565.167,412.5 582.833,412.5 600.5,412.5C 600.5,376.167 600.5,339.833 600.5,303.5C 610.5,303.5 620.5,303.5 630.5,303.5C 630.5,309.167 630.5,314.833 630.5,320.5C 626.5,320.5 622.5,320.5 618.5,320.5C 618.5,356.833 618.5,393.167 618.5,429.5C 588.833,429.5 559.167,429.5 529.5,429.5C 529.5,387.5 529.5,345.5 529.5,303.5 Z"/></g>
<g><path style="opacity:0.913" fill="#000000" d="M 985.5,303.5 C 991.833,303.5 998.167,303.5 1004.5,303.5C 1004.5,345.5 1004.5,387.5 1004.5,429.5C 998.167,429.5 991.833,429.5 985.5,429.5C 985.5,387.5 985.5,345.5 985.5,303.5 Z"/></g>
<g><path style="opacity:0.958" fill="#000000" d="M 1021.5,303.5 C 1027.5,303.5 1033.5,303.5 1039.5,303.5C 1039.5,339.833 1039.5,376.167 1039.5,412.5C 1062.83,412.5 1086.17,412.5 1109.5,412.5C 1109.5,418.167 1109.5,423.833 1109.5,429.5C 1080.17,429.5 1050.83,429.5 1021.5,429.5C 1021.5,387.5 1021.5,345.5 1021.5,303.5 Z"/></g>
<g><path style="opacity:0.944" fill="#000000" d="M 1263.5,303.5 C 1269.5,303.5 1275.5,303.5 1281.5,303.5C 1281.5,326.5 1281.5,349.5 1281.5,372.5C 1299.17,372.5 1316.83,372.5 1334.5,372.5C 1334.5,362.5 1334.5,352.5 1334.5,342.5C 1340.17,342.5 1345.83,342.5 1351.5,342.5C 1351.5,358.167 1351.5,373.833 1351.5,389.5C 1341.5,389.5 1331.5,389.5 1321.5,389.5C 1321.5,397.167 1321.5,404.833 1321.5,412.5C 1331.5,412.5 1341.5,412.5 1351.5,412.5C 1351.5,418.167 1351.5,423.833 1351.5,429.5C 1335.83,429.5 1320.17,429.5 1304.5,429.5C 1304.5,416.167 1304.5,402.833 1304.5,389.5C 1296.83,389.5 1289.17,389.5 1281.5,389.5C 1281.5,402.833 1281.5,416.167 1281.5,429.5C 1275.5,429.5 1269.5,429.5 1263.5,429.5C 1263.5,387.5 1263.5,345.5 1263.5,303.5 Z"/></g>
<g><path style="opacity:0.914" fill="#000000" d="M 1369.5,303.5 C 1375.83,303.5 1382.17,303.5 1388.5,303.5C 1388.5,335.833 1388.5,368.167 1388.5,400.5C 1382.17,400.5 1375.83,400.5 1369.5,400.5C 1369.5,368.167 1369.5,335.833 1369.5,303.5 Z"/></g>
<g><path style="opacity:0.848" fill="#000000" d="M 641.5,309.5 C 647.833,309.5 654.167,309.5 660.5,309.5C 660.5,315.5 660.5,321.5 660.5,327.5C 654.167,327.5 647.833,327.5 641.5,327.5C 641.5,321.5 641.5,315.5 641.5,309.5 Z"/></g>
<g><path style="opacity:0.895" fill="#000000" d="M 1125.5,309.5 C 1131.5,309.5 1137.5,309.5 1143.5,309.5C 1143.5,315.5 1143.5,321.5 1143.5,327.5C 1137.5,327.5 1131.5,327.5 1125.5,327.5C 1125.5,321.5 1125.5,315.5 1125.5,309.5 Z"/></g>
<g><path style="opacity:0.909" fill="#000000" d="M 641.5,342.5 C 647.833,342.5 654.167,342.5 660.5,342.5C 660.5,371.5 660.5,400.5 660.5,429.5C 654.167,429.5 647.833,429.5 641.5,429.5C 641.5,400.5 641.5,371.5 641.5,342.5 Z"/></g>
<g><path style="opacity:0.937" fill="#000000" d="M 676.5,342.5 C 705.167,342.5 733.833,342.5 762.5,342.5C 762.5,348.167 762.5,353.833 762.5,359.5C 739.833,359.5 717.167,359.5 694.5,359.5C 694.5,365.5 694.5,371.5 694.5,377.5C 717.167,377.5 739.833,377.5 762.5,377.5C 762.5,394.833 762.5,412.167 762.5,429.5C 733.833,429.5 705.167,429.5 676.5,429.5C 676.5,423.833 676.5,418.167 676.5,412.5C 699.167,412.5 721.833,412.5 744.5,412.5C 744.5,406.167 744.5,399.833 744.5,393.5C 721.833,393.5 699.167,393.5 676.5,393.5C 676.5,376.5 676.5,359.5 676.5,342.5 Z"/></g>
<g><path style="opacity:0.924" fill="#000000" d="M 777.5,342.5 C 783.833,342.5 790.167,342.5 796.5,342.5C 796.5,365.833 796.5,389.167 796.5,412.5C 813.5,412.5 830.5,412.5 847.5,412.5C 847.5,389.167 847.5,365.833 847.5,342.5C 853.5,342.5 859.5,342.5 865.5,342.5C 865.5,371.5 865.5,400.5 865.5,429.5C 836.167,429.5 806.833,429.5 777.5,429.5C 777.5,400.5 777.5,371.5 777.5,342.5 Z"/></g>
<g><path style="opacity:0.941" fill="#000000" d="M 881.5,342.5 C 910.833,342.5 940.167,342.5 969.5,342.5C 969.5,371.5 969.5,400.5 969.5,429.5C 940.167,429.5 910.833,429.5 881.5,429.5C 881.5,412.167 881.5,394.833 881.5,377.5C 904.833,377.5 928.167,377.5 951.5,377.5C 951.5,371.5 951.5,365.5 951.5,359.5C 928.167,359.5 904.833,359.5 881.5,359.5C 881.5,353.833 881.5,348.167 881.5,342.5 Z M 899.5,393.5 C 916.833,393.5 934.167,393.5 951.5,393.5C 951.5,399.833 951.5,406.167 951.5,412.5C 934.167,412.5 916.833,412.5 899.5,412.5C 899.5,406.167 899.5,399.833 899.5,393.5 Z"/></g>
<g><path style="opacity:0.959" fill="#000000" d="M 1125.5,342.5 C 1131.5,342.5 1137.5,342.5 1143.5,342.5C 1143.5,371.5 1143.5,400.5 1143.5,429.5C 1137.5,429.5 1131.5,429.5 1125.5,429.5C 1125.5,400.5 1125.5,371.5 1125.5,342.5 Z"/></g>
<g><path style="opacity:0.924" fill="#000000" d="M 1160.5,342.5 C 1189.83,342.5 1219.17,342.5 1248.5,342.5C 1248.5,371.5 1248.5,400.5 1248.5,429.5C 1242.17,429.5 1235.83,429.5 1229.5,429.5C 1229.5,406.167 1229.5,382.833 1229.5,359.5C 1212.5,359.5 1195.5,359.5 1178.5,359.5C 1178.5,382.833 1178.5,406.167 1178.5,429.5C 1172.5,429.5 1166.5,429.5 1160.5,429.5C 1160.5,400.5 1160.5,371.5 1160.5,342.5 Z"/></g>
<g><path style="opacity:0.847" fill="#000000" d="M 1369.5,411.5 C 1375.83,411.5 1382.17,411.5 1388.5,411.5C 1388.5,417.5 1388.5,423.5 1388.5,429.5C 1382.17,429.5 1375.83,429.5 1369.5,429.5C 1369.5,423.5 1369.5,417.5 1369.5,411.5 Z"/></g>
<g><path style="opacity:0.886" fill="#000000" d="M 883.5,479.5 C 898.833,479.5 914.167,479.5 929.5,479.5C 929.5,500.833 929.5,522.167 929.5,543.5C 926.5,543.5 923.5,543.5 920.5,543.5C 920.5,536.167 920.5,528.833 920.5,521.5C 911.5,521.5 902.5,521.5 893.5,521.5C 893.5,528.833 893.5,536.167 893.5,543.5C 890.167,543.5 886.833,543.5 883.5,543.5C 883.5,522.167 883.5,500.833 883.5,479.5 Z M 893.5,488.5 C 902.5,488.5 911.5,488.5 920.5,488.5C 920.5,496.5 920.5,504.5 920.5,512.5C 911.5,512.5 902.5,512.5 893.5,512.5C 893.5,504.5 893.5,496.5 893.5,488.5 Z"/></g>
<g><path style="opacity:0.875" fill="#000000" d="M 937.5,479.5 C 952.5,479.5 967.5,479.5 982.5,479.5C 982.5,482.5 982.5,485.5 982.5,488.5C 970.833,488.5 959.167,488.5 947.5,488.5C 947.5,494.5 947.5,500.5 947.5,506.5C 959.167,506.5 970.833,506.5 982.5,506.5C 982.5,509.5 982.5,512.5 982.5,515.5C 970.833,515.5 959.167,515.5 947.5,515.5C 947.5,521.833 947.5,528.167 947.5,534.5C 959.167,534.5 970.833,534.5 982.5,534.5C 982.5,537.5 982.5,540.5 982.5,543.5C 967.5,543.5 952.5,543.5 937.5,543.5C 937.5,522.167 937.5,500.833 937.5,479.5 Z"/></g>
<g><path style="opacity:0.867" fill="#000000" d="M 989.5,479.5 C 1004.83,479.5 1020.17,479.5 1035.5,479.5C 1035.5,482.5 1035.5,485.5 1035.5,488.5C 1023.5,488.5 1011.5,488.5 999.5,488.5C 999.5,503.833 999.5,519.167 999.5,534.5C 1008.17,534.5 1016.83,534.5 1025.5,534.5C 1025.5,528.167 1025.5,521.833 1025.5,515.5C 1020.83,515.5 1016.17,515.5 1011.5,515.5C 1011.5,512.5 1011.5,509.5 1011.5,506.5C 1019.5,506.5 1027.5,506.5 1035.5,506.5C 1035.5,518.833 1035.5,531.167 1035.5,543.5C 1020.17,543.5 1004.83,543.5 989.5,543.5C 989.5,522.167 989.5,500.833 989.5,479.5 Z"/></g>
</svg>
